<?xml version="1.0" standalone="no"?>
<!DOCTYPE svg PUBLIC "-//W3C//DTD SVG 20010904//EN"
 "http://www.w3.org/TR/2001/REC-SVG-20010904/DTD/svg10.dtd">
<svg version="1.0" xmlns="http://www.w3.org/2000/svg"
 width="880.000000pt" height="660.000000pt" viewBox="0 0 880.000000 660.000000"
 preserveAspectRatio="xMidYMid meet">

<g transform="translate(0.000000,660.000000) scale(0.100000,-0.100000)"
fill="#000000" stroke="none">
<path d="M4900 4933 c-226 -35 -429 -99 -617 -193 -319 -161 -565 -407 -722
-725 -72 -145 -109 -252 -135 -390 -82 -447 62 -878 380 -1134 125 -101 244
-159 412 -202 125 -32 322 -32 446 0 184 48 321 121 450 242 121 113 213 264
263 430 27 89 28 104 27 284 0 177 -2 196 -27 278 -97 315 -328 530 -677 630
l-85 25 -3 60 c-4 83 21 181 73 287 76 156 189 266 353 346 56 28 100 55 97
60 -6 9 -182 11 -235 2z m-370 -157 c0 -11 -49 -54 -56 -48 -4 4 -4 -1 -1 -10
4 -11 1 -18 -6 -18 -7 -1 -41 -40 -77 -88 -96 -129 -172 -202 -430 -418 -47
-39 -98 -84 -114 -100 -74 -74 -211 -288 -265 -414 -13 -30 -32 -73 -42 -95
-10 -22 -32 -74 -49 -115 l-30 -75 5 80 c37 495 377 986 845 1220 111 56 220
96 220 81z"/>
</g>
</svg>
