<?xml version="1.0" standalone="no"?>
<!DOCTYPE svg PUBLIC "-//W3C//DTD SVG 20010904//EN"
 "http://www.w3.org/TR/2001/REC-SVG-20010904/DTD/svg10.dtd">
<svg version="1.0" xmlns="http://www.w3.org/2000/svg"
 width="600.000000pt" height="600.000000pt" viewBox="0 0 600.000000 600.000000"
 preserveAspectRatio="xMidYMid meet">

<g transform="translate(0.000000,600.000000) scale(0.100000,-0.100000)"
fill="#000000" stroke="none">
<path d="M2991 4031 c-18 -12 -16 -17 106 -280 57 -124 119 -257 136 -296 18
-38 43 -94 57 -123 l25 -54 25 20 24 20 -37 83 c-160 354 -295 634 -307 636
-8 2 -21 -1 -29 -6z"/>
<path d="M3190 4027 c0 -2 46 -105 103 -228 57 -123 116 -254 132 -291 17 -37
33 -68 36 -68 11 0 39 79 50 136 12 67 -3 169 -36 239 -46 97 -157 189 -252
210 -18 3 -33 5 -33 2z"/>
<path d="M2805 3919 c-82 -76 -139 -235 -119 -331 7 -35 15 -46 44 -60 43 -22
131 -23 170 -3 16 8 42 32 57 52 46 60 39 112 -32 261 -32 67 -62 122 -67 122
-5 0 -29 -19 -53 -41z"/>
<path d="M3024 3584 c-14 -44 -23 -61 -49 -93 -41 -48 -100 -81 -156 -88 -27
-3 -49 -9 -49 -13 0 -21 94 -98 158 -128 100 -47 195 -56 235 -21 l26 24 -75
164 c-41 91 -76 167 -79 169 -2 3 -7 -4 -11 -14z"/>
<path d="M4845 3226 l-110 -42 -3 -87 -3 -87 -43 0 c-45 0 -59 -9 -70 -47 -7
-22 -5 -23 52 -23 l60 0 4 -317 c4 -273 7 -324 22 -358 31 -72 37 -75 151 -75
l103 0 -19 37 c-18 34 -19 63 -19 375 l0 338 38 0 c32 0 41 5 50 25 19 41 15
45 -38 45 l-50 0 0 130 c0 72 -3 130 -7 129 -5 0 -57 -19 -118 -43z"/>
<path d="M5333 3227 l-113 -42 0 -87 0 -88 -48 0 c-43 0 -50 -3 -60 -25 -19
-41 -15 -45 47 -45 l59 0 5 -317 c4 -331 8 -367 49 -410 20 -21 30 -23 120
-23 54 0 98 3 98 8 -1 4 -7 18 -15 32 -12 20 -14 89 -15 368 l0 342 39 0 c35
0 40 3 50 31 6 18 11 34 11 35 0 2 -22 4 -50 4 l-50 0 0 130 c0 72 -3 130 -7
129 -5 0 -59 -19 -120 -42z"/>
<path d="M828 3199 c-65 -32 -118 -61 -118 -63 0 -3 47 -106 105 -231 l105
-226 -46 -92 c-127 -252 -227 -343 -368 -335 l-59 3 -69 -110 c-38 -60 -67
-116 -66 -124 5 -24 96 -54 169 -55 57 -1 72 3 115 29 89 56 180 192 298 448
29 65 56 120 58 123 3 2 39 -69 81 -158 41 -90 94 -202 117 -250 l41 -88 155
0 c153 0 155 0 149 21 -4 11 -36 86 -72 166 l-64 146 39 86 c22 47 43 84 48
81 5 -3 59 -115 121 -250 l112 -245 146 -3 c110 -2 145 0 145 10 0 21 -514
1148 -524 1148 -11 0 -236 -109 -236 -114 0 -2 43 -101 95 -220 l95 -216 -43
-86 -43 -85 -60 128 c-33 70 -112 239 -174 376 -63 136 -118 247 -124 246 -6
0 -64 -27 -128 -60z"/>
<path d="M2215 3014 c-68 -9 -154 -37 -174 -55 -11 -11 -27 -32 -35 -47 -16
-32 -40 -131 -34 -138 3 -2 22 10 44 27 62 49 133 81 195 86 48 5 59 3 78 -16
11 -11 21 -25 21 -30 0 -26 -54 -63 -140 -96 -196 -76 -258 -136 -276 -272
-16 -126 74 -268 184 -289 40 -8 103 15 174 62 28 19 51 33 52 32 1 -2 10 -21
21 -43 l20 -40 113 -3 c61 -1 112 0 112 3 0 3 -8 18 -17 32 -16 24 -19 64 -23
339 l-5 312 -30 44 c-43 60 -98 88 -182 93 -37 2 -81 1 -98 -1z m69 -350 c13
-12 16 -39 16 -129 0 -63 -4 -125 -9 -138 -13 -33 -71 -67 -115 -67 -69 0 -98
63 -77 168 14 70 54 129 106 159 48 27 59 28 79 7z"/>
<path d="M4250 2989 c-97 -44 -188 -109 -205 -146 -40 -84 -43 -398 -5 -473
25 -49 116 -133 180 -165 107 -54 206 -26 330 95 92 89 105 128 97 304 -7 194
-15 216 -106 306 -119 119 -173 133 -291 79z m134 -119 c40 -48 49 -101 50
-275 1 -180 -14 -239 -67 -279 -26 -19 -30 -19 -55 -6 -41 23 -60 74 -72 192
-13 127 -1 289 26 339 34 66 77 77 118 29z"/>
<path d="M2925 2995 c-16 -8 -40 -22 -52 -31 -22 -16 -23 -15 -33 10 -9 26
-10 26 -121 26 -102 0 -110 -1 -103 -17 5 -10 11 -173 14 -363 3 -190 9 -354
14 -365 5 -11 18 -30 29 -42 19 -21 29 -23 123 -23 l103 0 -19 43 c-18 38 -20
67 -20 314 l0 272 36 10 c27 8 47 6 81 -5 25 -9 46 -14 48 -12 1 2 21 34 45
71 41 65 42 69 25 87 -34 38 -118 50 -170 25z"/>
<path d="M3471 2999 c-13 -5 -36 -18 -52 -30 l-29 -20 -12 25 c-11 26 -13 26
-126 26 -105 0 -113 -1 -101 -17 11 -13 15 -90 19 -367 4 -306 7 -355 22 -382
10 -17 25 -34 33 -38 9 -3 61 -6 115 -6 l97 0 -21 43 c-20 40 -21 57 -21 312
l0 270 38 12 c31 11 45 10 84 -3 28 -10 49 -12 50 -7 2 6 22 39 45 73 l41 64
-28 22 c-41 33 -105 43 -154 23z"/>
<path d="M3696 2983 c5 -10 11 -178 14 -373 5 -330 6 -357 25 -387 l19 -33
108 0 c59 0 108 2 108 4 0 2 -9 23 -20 47 -18 41 -20 67 -20 361 0 268 -3 324
-16 358 l-16 40 -105 0 c-97 0 -104 -1 -97 -17z"/>
<path d="M5576 2298 c-9 -12 -16 -33 -16 -45 0 -30 37 -63 71 -63 33 0 69 34
69 65 0 23 -26 65 -41 65 -5 0 0 -9 11 -20 24 -24 25 -48 4 -78 -30 -43 -104
-17 -104 36 0 12 9 31 20 42 11 11 16 20 11 20 -6 0 -17 -10 -25 -22z"/>
<path d="M5606 2292 c-10 -10 -6 -72 4 -72 6 0 10 8 10 18 1 16 1 16 14 0 7
-10 15 -18 18 -18 7 0 7 70 0 71 -4 0 -15 2 -24 4 -9 2 -19 0 -22 -3z m34 -22
c0 -5 -4 -10 -10 -10 -5 0 -10 5 -10 10 0 6 5 10 10 10 6 0 10 -4 10 -10z"/>
</g>
</svg>
