<?xml version="1.0" standalone="no"?>
<!DOCTYPE svg PUBLIC "-//W3C//DTD SVG 20010904//EN"
 "http://www.w3.org/TR/2001/REC-SVG-20010904/DTD/svg10.dtd">
<svg version="1.0" xmlns="http://www.w3.org/2000/svg"
 width="1600.000000pt" height="1600.000000pt" viewBox="0 0 1600.000000 1600.000000"
 preserveAspectRatio="xMidYMid meet">

<g transform="translate(0.000000,1600.000000) scale(0.100000,-0.100000)"
fill="#000000" stroke="none">
<path d="M0 8000 l0 -8000 8000 0 8000 0 0 8000 0 8000 -8000 0 -8000 0 0
-8000z m4045 1321 c72 -22 146 -44 165 -49 19 -5 112 -33 205 -61 94 -28 202
-61 240 -72 39 -11 82 -25 97 -31 15 -5 31 -7 37 -4 5 3 11 2 13 -3 1 -4 84
-32 183 -61 99 -29 182 -54 183 -56 2 -1 -43 -17 -100 -35 -56 -18 -105 -37
-106 -41 -2 -4 -8 -6 -12 -3 -5 3 -31 -1 -57 -9 -69 -22 -480 -146 -533 -161
-68 -19 -214 -63 -320 -97 -81 -26 -211 -45 -195 -30 3 3 -91 34 -207 69 -286
86 -522 157 -641 194 -53 16 -101 28 -106 24 -5 -3 -11 -2 -13 3 -1 4 -52 23
-113 41 -60 19 -113 37 -117 40 -8 7 1211 378 1247 380 11 1 79 -17 150 -38z
m2300 -235 c39 -9 99 -25 135 -37 65 -21 237 -96 254 -110 10 -9 -5 -70 -35
-135 -10 -23 -50 -124 -90 -225 -39 -101 -72 -186 -74 -188 -2 -2 -20 7 -39
19 -217 134 -473 175 -558 90 -37 -37 -38 -82 -2 -115 18 -16 55 -30 122 -45
327 -72 406 -100 526 -181 82 -56 75 -61 94 66 18 114 81 284 133 356 10 15
18 34 17 41 -2 7 2 12 9 11 7 -2 18 7 24 19 7 12 28 40 48 61 20 22 35 45 33
51 -2 6 -1 8 3 5 3 -4 21 7 38 23 18 17 59 51 92 75 33 25 59 50 57 55 -1 5 1
7 6 4 13 -8 174 79 165 89 -5 4 -3 5 3 2 7 -4 58 8 115 27 163 53 223 61 439
61 210 0 282 -10 437 -61 43 -14 83 -27 88 -28 6 -1 15 -5 21 -9 7 -4 43 -23
80 -43 219 -117 390 -295 480 -503 l34 -76 0 348 0 347 465 0 c261 0 509 -5
563 -11 194 -21 391 -73 515 -135 26 -14 53 -22 60 -18 7 4 9 4 5 0 -4 -5 26
-30 66 -57 40 -26 97 -73 126 -103 29 -30 57 -53 62 -50 5 3 7 2 6 -3 -1 -4
18 -39 43 -78 56 -84 86 -144 108 -208 16 -47 17 -37 13 272 -2 176 -1 336 2
356 l7 35 394 0 395 0 0 -330 0 -330 46 87 c25 48 61 108 80 134 35 48 43 65
22 53 -7 -4 -8 -3 -4 5 4 6 11 9 15 7 13 -9 84 71 76 85 -5 8 -4 10 4 5 7 -4
33 12 64 40 28 26 69 58 89 72 21 13 35 29 31 35 -3 6 -1 7 5 3 14 -8 92 33
92 48 0 5 3 7 6 3 4 -3 23 2 43 12 55 28 226 78 314 92 98 15 385 6 482 -15
39 -8 104 -25 146 -37 l76 -21 7 -147 c3 -80 9 -263 12 -406 l6 -260 -39 38
c-21 20 -43 37 -47 37 -4 0 -25 13 -45 29 -20 15 -65 42 -101 59 -198 92 -405
63 -540 -76 -125 -129 -150 -293 -69 -453 32 -65 119 -147 187 -180 140 -65
314 -59 467 18 68 35 146 93 139 104 -3 5 -2 9 3 8 22 -4 34 2 27 14 -5 9 -4
9 6 0 11 -10 11 -78 2 -388 -7 -207 -10 -380 -7 -385 12 -20 -144 -60 -305
-79 -308 -35 -498 -16 -716 73 -46 19 -84 32 -84 28 0 -3 -6 1 -12 10 -7 8
-33 26 -57 39 -53 29 -61 35 -174 141 -49 46 -97 98 -109 116 -11 17 -25 29
-30 26 -7 -4 -8 -2 -4 4 3 6 -10 36 -29 67 -20 31 -45 75 -55 98 l-19 42 0
-312 -1 -313 -400 0 -400 0 0 328 -1 327 -26 -65 c-53 -132 -174 -286 -295
-376 -31 -23 -55 -44 -53 -48 3 -3 2 -4 -2 -1 -3 3 -29 -8 -57 -24 -71 -41
-195 -88 -301 -113 -87 -21 -113 -22 -692 -26 l-603 -3 -1 338 0 338 -20 -49
c-76 -187 -227 -363 -403 -470 -343 -208 -800 -250 -1212 -110 -57 19 -176 78
-216 106 -16 11 -34 16 -40 12 -7 -4 -10 -4 -6 0 4 5 -26 34 -66 66 -40 33
-78 66 -85 74 -8 9 -17 13 -22 10 -5 -3 -8 0 -7 8 2 7 -3 12 -10 10 -8 -1 -11
2 -8 7 3 5 -8 26 -26 47 -17 22 -43 58 -58 82 l-28 42 -22 -56 c-48 -118 -139
-230 -243 -299 -31 -21 -54 -41 -51 -46 3 -5 -3 -6 -12 -2 -13 5 -15 3 -9 -7
5 -8 4 -11 -2 -7 -5 3 -36 -7 -69 -22 -177 -85 -415 -122 -644 -101 -127 11
-307 42 -348 60 l-22 10 0 320 c1 176 3 320 6 320 3 0 43 -20 87 -44 215 -117
429 -137 514 -50 26 27 33 43 33 72 0 44 -37 89 -65 78 -9 -3 -14 -2 -11 3 3
5 -20 13 -52 19 -249 49 -325 61 -334 56 -6 -4 -8 -2 -5 3 7 11 -106 59 -131
56 -7 0 -11 2 -8 5 3 3 -3 11 -14 19 -20 14 -20 26 -20 511 l0 497 68 46 c37
26 77 49 90 53 12 4 19 12 16 18 -4 7 -2 8 4 4 6 -4 29 2 51 13 48 25 196 69
271 81 85 14 393 4 475 -14z m-3630 -260 c82 -25 152 -43 156 -40 4 2 9 0 11
-4 1 -5 201 -68 443 -140 242 -73 457 -137 478 -144 l37 -11 0 -924 c0 -508
-4 -923 -8 -923 -4 0 -116 32 -248 70 -131 39 -286 84 -344 101 -58 17 -116
34 -130 39 -14 5 -90 27 -170 50 -80 23 -163 48 -185 55 -22 7 -75 23 -117 35
l-78 23 0 928 c0 511 1 929 3 929 2 0 70 -20 152 -44z m2535 -884 l0 -929
-178 -51 c-98 -29 -184 -52 -191 -52 -7 0 -9 -5 -5 -12 4 -7 3 -8 -4 -4 -6 4
-100 -20 -209 -53 -109 -32 -263 -78 -343 -101 -80 -23 -188 -55 -241 -71 -53
-16 -100 -29 -105 -29 -5 0 -9 392 -9 924 l0 924 40 12 c22 6 121 36 220 66
99 30 209 63 245 74 36 10 119 35 185 55 66 20 216 65 334 101 118 35 216 66
219 69 3 3 14 5 24 5 17 0 18 -35 18 -928z m1670 842 c0 -8 -19 -13 -24 -6 -3
5 1 9 9 9 8 0 15 -2 15 -3z"/>
<path d="M7775 8410 c-204 -41 -323 -202 -313 -424 3 -77 9 -101 36 -158 34
-69 106 -145 166 -173 74 -35 256 -61 256 -37 0 4 15 7 33 8 39 0 151 50 143
63 -3 5 2 8 11 7 25 -2 108 107 127 167 24 74 31 174 16 238 -51 219 -256 352
-475 309z"/>
<path d="M9790 8016 l0 -406 58 0 c157 1 310 66 378 162 52 72 67 134 62 256
-6 132 -30 203 -93 267 -46 46 -98 79 -109 68 -3 -4 -6 -2 -6 4 0 16 -105 41
-202 49 l-88 7 0 -407z"/>
</g>
</svg>
