<?xml version="1.0" standalone="no"?>
<!DOCTYPE svg PUBLIC "-//W3C//DTD SVG 20010904//EN"
 "http://www.w3.org/TR/2001/REC-SVG-20010904/DTD/svg10.dtd">
<svg version="1.0" xmlns="http://www.w3.org/2000/svg"
 width="3000.000000pt" height="2000.000000pt" viewBox="0 0 3000.000000 2000.000000"
 preserveAspectRatio="xMidYMid meet">

<g transform="translate(0.000000,2000.000000) scale(0.100000,-0.100000)"
fill="#000000" stroke="none">
<path d="M5000 11803 c-387 -21 -669 -101 -875 -248 -211 -150 -366 -410 -444
-745 -36 -152 -189 -883 -202 -965 -20 -126 -16 -324 9 -418 64 -238 229 -384
512 -457 157 -40 310 -54 600 -54 283 0 395 9 579 45 485 96 780 372 916 859
22 79 145 649 200 925 65 324 49 545 -50 710 -81 135 -218 230 -412 286 -187
53 -530 79 -833 62z m370 -717 c96 -36 124 -86 123 -216 0 -78 -14 -158 -77
-455 -116 -547 -132 -597 -218 -691 -83 -90 -181 -114 -470 -114 -462 1 -484
49 -339 730 104 487 129 565 212 655 91 99 162 115 484 111 198 -2 248 -5 285
-20z"/>
<path d="M9425 10543 c-351 -687 -682 -1334 -737 -1439 -54 -105 -98 -194 -98
-198 0 -3 383 -6 850 -6 l850 0 0 305 0 305 -281 0 -281 0 235 463 c129 254
299 589 377 745 79 155 145 281 147 279 3 -3 107 -1208 158 -1825 8 -103 18
-206 21 -229 l5 -43 415 0 414 0 0 24 c0 14 -18 229 -40 478 -22 249 -45 505
-50 568 -6 63 -21 241 -35 395 -58 654 -125 1413 -125 1419 0 3 -267 6 -594 6
l-593 0 -638 -1247z"/>
<path d="M12905 11783 c-540 -34 -795 -184 -958 -563 -103 -241 -157 -622
-112 -795 43 -164 150 -261 346 -314 103 -28 267 -47 609 -71 162 -11 320 -23
350 -26 61 -7 120 -28 132 -47 14 -22 8 -112 -11 -190 -32 -125 -77 -174 -188
-205 -87 -24 -515 -24 -593 0 -79 25 -103 54 -108 131 -2 34 0 86 6 115 l9 52
-378 0 c-351 0 -378 -1 -383 -17 -19 -63 -39 -238 -40 -353 -1 -160 17 -248
71 -337 43 -73 73 -103 148 -148 150 -89 322 -116 760 -116 325 -1 458 8 640
42 471 87 706 285 809 680 53 207 78 352 83 491 5 124 3 145 -17 209 -17 53
-35 84 -71 123 -123 135 -314 182 -934 231 -176 13 -337 29 -358 35 -77 22
-97 66 -78 175 22 134 66 187 180 223 47 14 97 17 301 17 215 0 249 -2 277
-18 51 -27 67 -68 59 -152 -3 -38 -9 -80 -12 -92 l-6 -23 380 0 380 1 21 102
c58 278 50 443 -30 583 -83 147 -261 227 -561 254 -101 9 -597 11 -723 3z"/>
<path d="M15600 11779 c-710 -57 -1047 -336 -1205 -997 -47 -195 -169 -776
-195 -927 -27 -156 -29 -368 -5 -475 49 -212 158 -333 364 -405 146 -51 235
-63 554 -75 293 -10 609 1 735 25 184 35 359 117 493 229 132 110 231 263 293
448 22 69 96 380 96 408 0 7 -130 10 -403 10 l-403 0 -23 -95 c-65 -276 -149
-334 -482 -335 -166 0 -243 11 -312 46 -93 47 -109 152 -61 396 45 235 124
600 149 697 50 187 121 286 239 330 87 33 270 48 410 34 244 -25 290 -96 229
-350 l-5 -23 405 0 405 0 16 73 c50 230 63 461 32 591 -54 228 -211 342 -531
386 -107 14 -651 21 -795 9z"/>
<path d="M18195 11769 c-207 -20 -438 -80 -577 -150 -197 -99 -359 -261 -458
-459 -84 -166 -111 -258 -200 -686 -34 -159 -76 -361 -95 -449 -97 -461 -64
-706 121 -890 115 -115 275 -182 526 -222 91 -14 177 -18 433 -18 387 0 534
17 755 87 364 116 599 363 726 763 34 110 222 976 244 1133 20 132 8 340 -23
429 -95 275 -309 408 -732 458 -142 16 -562 19 -720 4z m432 -690 c183 -24
234 -94 212 -289 -11 -95 -157 -794 -188 -897 -44 -146 -125 -242 -236 -278
-112 -36 -455 -45 -594 -14 -141 30 -187 118 -161 310 21 154 161 800 191 882
67 184 156 261 333 287 79 12 356 11 443 -1z"/>
<path d="M6656 11748 c-3 -7 -16 -69 -31 -138 -26 -127 -215 -1020 -240 -1141
-8 -36 -71 -330 -139 -655 -69 -324 -139 -656 -156 -737 -17 -82 -29 -155 -26
-163 5 -13 61 -15 390 -14 350 2 386 3 390 18 3 9 37 167 76 350 38 183 73
344 76 358 l6 25 327 -3 c315 -3 327 -4 367 -25 83 -44 109 -134 81 -278 -9
-44 -30 -145 -47 -225 -18 -80 -34 -162 -37 -182 l-6 -38 385 0 c296 0 388 3
396 13 6 6 15 37 21 67 5 30 35 174 66 320 50 233 56 276 53 352 -4 75 -9 96
-39 155 -52 103 -162 175 -292 190 -26 3 -46 8 -43 10 2 2 54 21 114 42 142
49 209 89 303 181 113 111 164 220 229 490 69 287 88 509 55 648 -50 212 -199
319 -515 368 -145 23 -1757 34 -1764 12z m1376 -711 c79 -40 85 -117 27 -367
-49 -214 -86 -272 -192 -306 -42 -13 -114 -17 -384 -21 -249 -4 -333 -3 -333
6 0 13 137 667 146 694 5 17 26 18 352 15 312 -3 351 -5 384 -21z"/>
<path d="M20000 11708 c-6 -29 -78 -370 -160 -758 -257 -1217 -368 -1740 -399
-1888 -17 -78 -31 -147 -31 -152 0 -6 147 -10 393 -10 l394 0 11 63 c24 130
262 1485 308 1751 37 209 51 272 56 250 4 -16 62 -481 128 -1034 66 -553 123
-1011 125 -1018 4 -10 77 -12 341 -10 l336 3 128 235 c70 129 281 521 470 870
464 861 524 970 528 965 2 -2 -46 -205 -107 -452 -301 -1220 -391 -1591 -391
-1608 0 -13 55 -15 389 -15 362 0 390 1 395 18 3 9 55 253 115 542 61 289 124
590 141 670 119 562 141 672 136 677 -3 4 -24 -8 -45 -25 l-40 -32 -93 123
c-246 321 -380 499 -376 502 1 2 109 85 238 185 129 100 237 186 238 191 2 5
-199 9 -481 9 l-484 0 -434 -876 c-418 -843 -434 -874 -441 -837 -5 21 -40
391 -78 823 -39 432 -73 809 -76 838 l-6 52 -608 0 -608 0 -12 -52z"/>
<path d="M14155 8334 c-183 -27 -242 -94 -290 -333 -42 -209 -31 -276 54 -315
40 -18 65 -21 181 -21 125 0 139 2 191 26 68 32 104 77 130 160 29 94 34 89
-86 89 l-105 0 -6 -27 c-12 -50 -32 -63 -96 -63 -45 0 -60 4 -65 16 -7 19 24
195 42 241 15 35 50 47 116 41 31 -3 34 -6 37 -40 l3 -38 104 0 104 0 8 38
c21 103 -2 178 -61 206 -36 17 -198 29 -261 20z"/>
<path d="M15204 8331 c-107 -17 -186 -73 -225 -157 -26 -58 -69 -262 -69 -331
0 -119 59 -167 220 -180 154 -12 274 25 339 104 37 45 53 91 87 253 37 181 23
240 -71 285 -56 28 -191 40 -281 26z m146 -196 c10 -12 7 -38 -14 -132 -14
-64 -34 -125 -43 -135 -14 -16 -29 -18 -87 -16 l-71 3 -3 33 c-4 39 25 187 44
224 16 31 29 35 105 37 39 1 60 -4 69 -14z"/>
<path d="M17522 8330 c-62 -12 -98 -29 -129 -62 -37 -39 -64 -115 -70 -193 -6
-72 -5 -75 24 -104 36 -35 78 -47 201 -56 87 -7 92 -8 92 -30 0 -36 -22 -46
-97 -43 l-68 3 3 33 3 32 -99 0 c-115 0 -112 2 -112 -93 0 -125 43 -152 240
-152 251 1 326 60 347 272 5 59 4 63 -24 91 -37 37 -83 51 -195 59 -99 7 -109
11 -102 40 7 25 30 33 97 33 l47 0 0 -35 0 -35 99 0 99 0 6 31 c3 17 6 51 6
75 0 101 -46 132 -208 139 -59 2 -131 0 -160 -5z"/>
<path d="M21964 8330 c-107 -15 -174 -63 -213 -151 -34 -77 -74 -257 -75 -341
-1 -89 15 -120 80 -153 33 -17 59 -20 174 -20 89 0 148 5 174 14 44 15 111 72
131 111 19 37 44 149 34 152 -5 2 -53 2 -108 0 l-100 -3 -7 -32 c-10 -50 -21
-57 -90 -57 -79 0 -81 6 -55 132 33 159 43 171 134 166 l52 -3 -1 -37 -1 -38
103 0 c67 0 105 4 110 12 4 6 9 43 11 82 5 85 -16 128 -74 153 -44 18 -194 25
-279 13z"/>
<path d="M24901 8329 c-120 -21 -196 -81 -230 -179 -25 -73 -61 -255 -61 -306
0 -80 23 -119 89 -152 52 -25 65 -27 181 -26 105 0 134 4 182 23 75 29 131 92
157 175 36 121 64 281 57 330 -9 58 -54 106 -115 124 -56 17 -194 23 -260 11z
m148 -188 c11 -7 11 -21 1 -82 -19 -115 -39 -183 -57 -196 -10 -8 -46 -13 -85
-13 -83 0 -86 4 -69 107 20 118 39 173 64 183 29 11 128 12 146 1z"/>
<path d="M16155 8318 c-5 -15 -135 -640 -135 -649 0 -8 152 -11 183 -4 23 6
26 15 52 148 14 78 31 165 37 192 l11 50 18 -115 c10 -63 23 -152 29 -198 l12
-83 154 2 c103 0 156 5 162 12 5 7 37 147 71 312 34 165 65 310 68 323 5 22 4
22 -100 22 l-104 0 -33 -172 c-18 -95 -36 -181 -40 -192 -3 -10 -18 54 -34
155 -15 96 -29 182 -32 192 -5 15 -21 17 -160 17 -115 0 -156 -3 -159 -12z"/>
<path d="M18455 8318 c-2 -7 -9 -40 -15 -73 -6 -33 -14 -68 -16 -77 -5 -16 3
-18 70 -18 41 0 77 -3 79 -7 2 -5 -4 -44 -14 -88 -35 -153 -79 -366 -79 -380
0 -20 198 -22 205 -2 3 7 27 116 53 242 l47 230 85 5 85 5 11 51 c6 29 14 68
18 88 l7 36 -266 0 c-204 0 -267 -3 -270 -12z"/>
<path d="M19516 8313 c-3 -10 -32 -151 -66 -313 -33 -162 -62 -303 -64 -313
-5 -23 22 -29 119 -25 89 3 83 -3 105 111 l11 57 70 0 c48 0 71 -4 75 -13 2
-7 -2 -43 -9 -79 -17 -81 -21 -78 104 -78 84 0 89 1 93 23 33 157 34 192 4
225 -21 22 -22 24 -5 33 57 32 92 109 104 225 7 72 -11 115 -60 141 -27 15
-65 18 -254 21 -207 3 -222 2 -227 -15z m313 -172 c12 -8 12 -17 0 -63 l-14
-53 -78 -3 c-72 -3 -78 -1 -73 15 3 10 8 32 11 48 15 67 12 65 78 65 34 0 68
-4 76 -9z"/>
<path d="M20675 8318 c-11 -30 -105 -490 -105 -513 0 -54 27 -95 77 -118 42
-18 66 -21 183 -22 125 0 139 2 191 26 97 46 116 87 179 381 28 128 50 239 50
246 0 9 -27 12 -103 12 l-103 0 -12 -62 c-44 -220 -84 -394 -94 -405 -14 -18
-137 -18 -144 0 -2 7 16 111 41 231 25 120 45 222 45 227 0 15 -200 11 -205
-3z"/>
<path d="M22845 8318 c-2 -7 -9 -40 -15 -73 -6 -33 -14 -68 -16 -77 -5 -16 3
-18 70 -18 41 0 77 -3 79 -7 2 -5 -17 -107 -44 -228 -26 -121 -48 -228 -48
-238 -1 -16 9 -17 102 -15 l102 3 52 235 c28 129 52 238 52 243 1 4 39 7 85 7
l83 0 17 83 c9 45 16 85 16 90 0 4 -119 7 -265 7 -204 0 -267 -3 -270 -12z"/>
<path d="M23955 8308 c-2 -13 -16 -75 -29 -138 -79 -369 -106 -496 -106 -503
0 -8 155 -9 186 -1 19 5 27 35 79 277 31 150 63 298 70 330 l13 57 -104 0
c-99 0 -104 -1 -109 -22z"/>
<path d="M25821 8283 c-11 -49 -131 -615 -131 -620 0 -6 199 2 205 8 3 4 22
89 41 190 19 100 36 184 37 186 2 1 16 -79 32 -180 15 -100 33 -188 38 -195 7
-9 48 -12 161 -10 l150 3 68 315 c37 173 67 323 67 333 1 15 -10 17 -102 17
l-103 0 -34 -185 c-18 -102 -36 -182 -40 -178 -4 4 -19 88 -35 186 l-27 177
-158 0 -158 0 -11 -47z"/>
</g>
</svg>
