<?xml version="1.0" standalone="no"?>
<!DOCTYPE svg PUBLIC "-//W3C//DTD SVG 20010904//EN"
 "http://www.w3.org/TR/2001/REC-SVG-20010904/DTD/svg10.dtd">
<svg version="1.0" xmlns="http://www.w3.org/2000/svg"
 width="880.000000pt" height="897.000000pt" viewBox="0 0 880.000000 897.000000"
 preserveAspectRatio="xMidYMid meet">

<g transform="translate(0.000000,897.000000) scale(0.100000,-0.100000)"
fill="#000000" stroke="none">
<path d="M1654 7437 c-91 -44 -144 -128 -144 -232 0 -58 23 -108 71 -155 24
-23 38 -48 43 -75 23 -126 121 -229 243 -255 36 -8 56 -19 68 -36 9 -14 27
-30 41 -36 38 -18 28 -28 -27 -28 -145 0 -294 -80 -313 -167 -4 -17 -21 -37
-41 -50 -20 -14 -46 -45 -61 -75 -22 -44 -26 -61 -22 -113 11 -131 98 -221
227 -232 41 -4 67 -1 96 13 28 12 67 18 130 18 97 2 134 14 190 66 19 17 47
30 73 34 77 11 136 52 185 126 19 28 23 70 6 70 -6 0 -29 -15 -50 -34 -40 -37
-119 -66 -179 -66 -28 0 -43 -7 -66 -31 -35 -38 -98 -68 -140 -69 -17 0 -51 7
-76 15 -43 15 -47 15 -82 -6 -70 -41 -158 -9 -185 67 -21 59 -8 111 38 154 21
19 41 47 44 61 16 66 133 129 239 129 39 0 57 6 86 29 20 17 62 36 92 43 76
19 78 41 5 63 -66 21 -115 57 -146 108 -15 24 -31 37 -45 37 -100 0 -212 103
-237 217 -6 32 -20 57 -42 78 -63 59 -56 165 15 213 43 29 116 26 160 -7 23
-16 44 -21 97 -21 115 -1 204 -60 240 -160 12 -35 23 -50 36 -50 31 0 95 -38
121 -72 13 -18 32 -61 42 -96 22 -77 42 -80 62 -7 8 28 24 64 36 80 12 17 27
54 34 82 23 102 90 171 186 193 28 6 56 19 63 31 50 70 182 64 226 -10 25 -42
22 -111 -6 -152 -17 -26 -22 -44 -19 -72 10 -85 -24 -149 -99 -187 -28 -15
-44 -32 -59 -67 -27 -61 -63 -99 -122 -129 -62 -31 -64 -54 -4 -54 91 0 174
49 206 122 12 27 29 49 41 53 35 11 101 77 120 120 11 24 19 64 19 99 0 42 6
68 21 93 94 152 -26 353 -210 353 -67 0 -146 -35 -185 -81 -14 -16 -33 -29
-43 -29 -92 -1 -223 -149 -223 -252 0 -45 -14 -49 -34 -9 -17 31 -51 57 -89
66 -18 5 -30 19 -41 48 -9 23 -36 65 -60 93 -58 65 -124 95 -214 97 -56 0 -73
5 -108 30 -60 42 -158 48 -230 14z"/>
<path d="M4570 7441 c-70 -22 -93 -35 -156 -82 -66 -51 -107 -109 -144 -207
-17 -43 -64 -134 -106 -202 -41 -67 -73 -125 -70 -127 2 -2 38 -5 79 -6 42 -1
79 -5 83 -9 4 -4 -10 -39 -31 -78 -20 -40 -35 -73 -33 -76 3 -2 42 3 89 11
119 21 253 19 305 -4 54 -24 72 -64 95 -210 10 -64 28 -171 39 -239 24 -149
75 -308 131 -405 49 -84 165 -230 241 -303 82 -79 199 -174 215 -174 26 0 9
26 -72 115 -169 184 -307 414 -359 600 -14 50 -39 185 -56 300 -43 294 -64
353 -147 402 -38 22 -60 27 -142 30 -53 3 -115 0 -138 -5 -23 -5 -44 -7 -47
-4 -3 2 11 33 30 68 l36 64 -66 0 c-36 0 -66 2 -66 4 0 3 16 32 36 66 19 33
44 86 55 118 25 73 80 153 127 186 71 49 111 60 213 61 90 0 99 -2 170 -37 86
-43 186 -136 304 -284 98 -122 154 -176 298 -288 238 -185 442 -414 679 -766
94 -139 140 -211 272 -423 159 -256 376 -664 499 -937 84 -186 161 -380 154
-387 -12 -12 -513 350 -751 541 -550 445 -942 951 -1230 1589 -32 71 -47 89
-60 69 -8 -13 22 -139 60 -252 92 -277 292 -603 552 -900 238 -271 594 -598
918 -841 l91 -70 46 -132 c25 -72 75 -217 111 -320 74 -212 79 -243 40 -253
-34 -9 -110 1 -128 16 -8 6 -29 53 -45 103 -64 192 -139 391 -149 395 -22 7
-17 -36 29 -258 27 -129 49 -246 49 -260 0 -17 -17 -42 -51 -78 -70 -70 -98
-68 -114 8 -11 56 -208 877 -221 923 -3 9 -14 17 -25 17 -24 0 -26 27 32 -340
70 -445 120 -719 141 -773 15 -38 45 -57 90 -57 34 0 48 9 116 73 115 109 99
101 249 107 133 5 135 5 159 33 14 17 24 41 24 59 0 18 -47 165 -105 328 -58
163 -105 299 -105 303 0 3 51 -28 113 -70 178 -121 274 -158 307 -118 54 65
-173 624 -469 1157 -97 176 -267 460 -355 596 -34 53 -92 142 -128 197 -218
338 -448 598 -728 823 -132 106 -193 166 -279 272 -155 193 -304 311 -436 345
-78 20 -196 18 -265 -4z"/>
<path d="M6334 7208 c-88 -148 -241 -378 -315 -477 -27 -35 -49 -69 -49 -76 0
-17 67 -78 78 -71 10 6 115 162 197 291 l38 60 13 -65 c16 -76 36 -107 90
-137 77 -44 210 -27 451 58 65 22 153 53 196 67 l77 26 0 59 c0 56 -1 58 -22
52 -13 -4 -105 -36 -205 -71 -306 -107 -395 -124 -446 -84 -34 27 -42 73 -28
156 11 59 57 196 105 307 l16 37 -58 0 -58 0 -80 -132z"/>
<path d="M4535 7146 c-54 -54 -39 -132 24 -129 35 1 106 45 122 75 15 27 -6
56 -49 68 -55 15 -70 13 -97 -14z"/>
<path d="M1876 7123 c-13 -13 -3 -24 104 -112 60 -51 115 -97 122 -104 7 -7
30 -26 51 -41 l38 -29 22 22 22 22 -76 73 c-75 73 -171 137 -241 161 -20 8
-39 11 -42 8z"/>
<path d="M2717 7049 c-79 -80 -148 -183 -162 -241 -5 -21 -2 -29 14 -38 12 -6
25 -8 30 -5 5 3 57 82 116 176 81 128 105 173 96 182 -9 9 -32 -10 -94 -74z"/>
<path d="M3449 7070 c-84 -14 -167 -68 -217 -144 -32 -47 -49 -91 -87 -225
-43 -153 -81 -217 -235 -396 -118 -139 -160 -195 -221 -300 -41 -72 -169 -345
-169 -362 0 -2 29 -3 65 -1 l66 3 45 100 c74 163 188 344 312 493 63 75 128
156 144 179 48 70 96 182 122 283 14 53 29 107 34 121 16 40 61 88 106 112 58
31 171 30 241 -2 28 -13 78 -25 112 -28 l61 -6 -29 -40 c-16 -22 -29 -44 -29
-48 0 -5 18 -21 40 -35 47 -31 49 -40 14 -48 -58 -15 -174 -156 -174 -213 0
-13 3 -23 6 -23 4 0 38 30 77 66 70 66 170 123 245 139 17 3 32 10 32 15 0 4
-29 30 -65 56 -35 27 -64 55 -65 62 0 7 22 45 49 85 l50 72 -107 6 c-91 5
-119 11 -192 41 -92 38 -159 49 -231 38z"/>
<path d="M3525 6858 c-32 -19 -44 -41 -45 -81 0 -30 5 -40 24 -48 20 -9 33 -7
69 10 24 12 50 33 57 46 13 23 12 28 -11 50 -30 29 -67 39 -94 23z"/>
<path d="M7205 6750 c-11 -5 -63 -26 -115 -46 -264 -101 -840 -365 -840 -384
0 -4 13 -25 29 -47 l30 -41 98 34 c112 38 222 54 373 54 103 0 188 9 283 31
l47 11 0 44 c0 24 -3 44 -7 44 -5 0 -59 -9 -122 -20 -173 -30 -262 -24 -220
15 8 7 119 54 247 105 l232 92 0 59 c0 61 -2 64 -35 49z"/>
<path d="M2417 6632 c-10 -10 -17 -22 -17 -27 0 -4 19 -38 42 -74 23 -36 73
-128 111 -205 38 -76 72 -134 76 -130 30 37 61 85 61 96 0 36 -224 358 -249
358 -4 0 -15 -8 -24 -18z"/>
<path d="M2150 6446 c-99 -30 -143 -49 -212 -94 -56 -36 -75 -58 -62 -71 5 -5
370 114 394 129 4 3 6 17 3 33 -7 33 -22 34 -123 3z"/>
<path d="M4035 6427 c-86 -18 -95 -18 -190 -3 -127 20 -139 20 -218 -4 -49
-15 -80 -33 -120 -70 -73 -67 -102 -134 -117 -270 -6 -58 -18 -126 -26 -152
-9 -27 -58 -106 -111 -180 -106 -146 -163 -232 -163 -246 0 -10 73 -52 92 -52
7 0 49 53 93 117 44 64 102 149 129 187 73 107 86 142 96 265 10 124 33 191
83 239 51 49 101 66 187 62 144 -5 185 -5 212 3 l28 7 -20 -51 c-12 -28 -19
-53 -18 -55 2 -1 26 -12 53 -24 l49 -21 -31 -25 c-42 -33 -126 -159 -152 -229
-36 -95 -46 -184 -33 -290 22 -178 50 -190 63 -28 14 168 32 235 96 344 48 84
103 150 161 194 29 21 52 42 52 45 0 3 -34 20 -76 39 -41 19 -77 37 -79 40 -2
3 12 43 30 89 18 45 30 84 26 85 -3 2 -46 -6 -96 -16z"/>
<path d="M3747 6220 c-22 -17 -27 -30 -27 -65 0 -76 52 -85 117 -20 38 38 39
45 16 74 -27 32 -73 37 -106 11z"/>
<path d="M2323 5899 c-173 -18 -337 -67 -433 -129 -68 -44 -84 -71 -75 -129
10 -61 10 -112 0 -192 -8 -72 -2 -90 63 -186 28 -43 35 -60 32 -90 -3 -21 -4
-74 -5 -118 0 -73 3 -86 34 -140 32 -58 95 -138 173 -220 21 -22 38 -42 38
-45 0 -3 -53 -27 -117 -54 -341 -141 -375 -158 -436 -215 -73 -68 -81 -96 -82
-266 l0 -150 38 1 c65 2 74 19 79 152 5 134 22 181 82 221 20 13 138 66 263
117 126 52 263 110 305 129 109 49 168 60 237 45 104 -22 259 -113 369 -215
l59 -54 42 31 42 31 -43 45 c-93 96 -272 214 -386 253 -63 22 -157 26 -212 9
-47 -14 -103 -13 -136 2 -34 16 -190 199 -215 253 -20 43 -25 100 -10 109 5 4
42 -11 83 -33 78 -42 145 -66 221 -80 l48 -9 -6 42 c-8 45 -21 66 -40 66 -25
0 -131 52 -198 97 -122 83 -204 195 -191 262 7 36 16 38 52 12 82 -57 252
-121 323 -121 21 0 87 16 146 36 95 32 116 36 175 31 60 -5 206 -49 381 -114
l49 -18 24 28 c13 15 24 33 24 38 0 6 -55 37 -122 69 -234 111 -397 143 -513
101 -139 -51 -152 -53 -208 -42 -130 28 -265 99 -300 158 -15 26 -16 35 -6 57
24 51 207 114 383 132 62 6 70 10 87 38 10 17 19 39 19 49 0 19 -6 19 -137 6z"/>
<path d="M4202 5883 c-23 -4 -67 -74 -55 -87 8 -8 488 -8 496 0 8 8 -20 76
-36 86 -12 7 -363 8 -405 1z"/>
<path d="M5836 5722 c-17 -27 192 -323 332 -472 91 -98 264 -247 390 -337 83
-60 112 -74 112 -54 0 5 -96 105 -213 223 -193 194 -473 499 -556 606 -31 40
-54 52 -65 34z"/>
<path d="M4780 5417 c-115 -40 -235 -46 -450 -22 -247 27 -403 10 -512 -58
l-38 -22 26 -37 26 -36 42 15 c125 45 267 53 479 27 158 -20 302 -14 401 15
77 23 196 76 196 87 0 15 -54 64 -69 63 -9 -1 -54 -15 -101 -32z"/>
<path d="M3487 5346 c-197 -89 -347 -210 -363 -291 -20 -110 53 -174 197 -175
141 0 257 32 450 126 l130 63 -17 26 c-27 42 -53 41 -156 -5 -181 -82 -245
-102 -351 -108 -84 -4 -100 -2 -117 13 -72 65 40 170 297 280 51 22 93 43 93
47 0 9 -50 68 -58 68 -4 0 -51 -20 -105 -44z"/>
<path d="M5003 5263 c-180 -226 -315 -368 -375 -396 -29 -14 -42 -15 -61 -6
-36 17 -49 53 -56 159 l-6 95 -40 -3 c-148 -12 -349 -74 -543 -168 l-114 -55
7 -37 c3 -20 10 -41 15 -46 4 -4 37 8 72 27 122 69 341 141 448 149 l44 3 8
-50 c24 -167 124 -243 244 -184 26 12 81 54 122 93 88 83 346 401 337 415 -3
6 -19 19 -35 31 l-28 20 -39 -47z"/>
<path d="M2510 5251 c-62 -21 -130 -50 -130 -55 0 -1 5 -17 11 -35 13 -36 30
-39 105 -16 27 8 72 15 101 15 44 0 58 -5 87 -31 38 -33 101 -148 89 -160 -10
-10 -170 -29 -246 -29 l-59 0 7 -32 c4 -18 11 -37 16 -43 15 -15 136 -18 246
-5 l105 12 16 -23 c103 -149 295 -239 477 -226 97 8 196 34 300 82 l78 35 -7
42 c-4 23 -9 44 -11 47 -3 2 -44 -14 -92 -37 -192 -88 -350 -101 -482 -39 -80
38 -168 138 -235 267 -79 153 -99 183 -142 217 -32 23 -48 28 -108 30 -49 2
-88 -3 -126 -16z"/>
<path d="M5263 5122 c-58 -31 -193 -144 -263 -220 -38 -41 -102 -122 -142
-180 -84 -122 -125 -165 -188 -197 -44 -22 -233 -85 -256 -85 -7 0 -15 12 -19
28 -20 79 -127 212 -201 248 -102 50 -201 25 -521 -132 -106 -51 -193 -99
-193 -106 0 -7 11 -26 24 -43 l24 -29 48 26 c65 35 368 163 419 177 62 17 126
13 162 -9 37 -22 95 -98 116 -152 14 -34 14 -38 -1 -42 -52 -15 -152 -27 -276
-32 -182 -7 -184 -8 -202 -49 -8 -19 -14 -37 -14 -40 0 -3 69 -5 153 -5 315 0
612 57 808 156 62 31 71 32 140 27 52 -4 93 0 138 12 107 27 250 109 270 152
13 27 15 90 4 96 -5 3 -34 -15 -66 -39 -77 -59 -162 -102 -227 -114 -64 -12
-71 -12 -89 -1 -12 8 -4 26 43 98 121 182 246 307 384 386 l53 30 -43 28 c-50
34 -44 33 -85 11z"/>
<path d="M5631 4902 c-87 -181 -289 -424 -452 -544 -95 -70 -218 -137 -304
-165 -80 -26 -81 -27 -505 -33 -444 -7 -486 -11 -655 -60 -114 -33 -197 -36
-289 -11 -82 23 -150 57 -182 92 -18 21 -18 21 11 42 16 12 41 32 54 43 l25
22 -27 36 -28 36 -57 -42 c-31 -23 -146 -108 -255 -190 -122 -92 -199 -144
-201 -136 -3 7 -6 49 -9 93 -6 133 -49 196 -174 259 -66 33 -82 33 -136 -2
l-45 -28 63 -23 c93 -33 150 -74 176 -127 42 -89 35 -233 -16 -299 -45 -60
-179 -115 -281 -115 -62 0 -87 -21 -82 -72 l3 -33 70 3 c145 6 240 43 365 141
46 36 105 82 131 101 26 19 98 75 160 124 63 49 119 93 125 98 8 5 27 -5 55
-28 57 -48 159 -98 240 -118 104 -26 191 -21 349 19 193 49 257 55 640 55 359
1 426 7 556 53 119 42 305 164 443 292 100 93 237 277 306 412 49 96 49 92
-16 131 l-35 21 -23 -47z"/>
<path d="M7055 3078 c-654 -66 -792 -82 -812 -94 -20 -12 -23 -23 -23 -73 0
-44 4 -60 16 -65 9 -3 224 -6 479 -6 373 0 465 3 474 13 6 8 12 52 13 99 2 71
0 89 -15 106 -25 27 -39 29 -132 20z"/>
<path d="M1575 3060 c-17 -5 -38 -23 -48 -39 -16 -27 -17 -82 -17 -716 l0
-687 29 -29 c28 -27 34 -29 110 -29 44 0 91 5 104 11 52 24 52 18 57 538 l5
484 116 -204 c64 -112 189 -332 278 -489 196 -346 183 -333 349 -338 128 -4
154 0 182 28 19 19 20 36 20 619 0 330 3 606 6 615 6 14 109 16 1071 16 714 0
1071 3 1084 10 16 9 19 22 19 94 0 68 -3 86 -18 99 -17 16 -115 17 -1205 17
l-1186 0 -28 -24 -28 -24 -3 -488 -3 -488 -60 104 c-33 57 -80 142 -106 189
-25 48 -72 131 -103 186 -31 55 -101 179 -155 275 -115 205 -135 234 -178 257
-37 19 -243 28 -292 13z"/>
<path d="M5172 3053 c-30 -12 -37 -51 -42 -228 l-5 -180 -40 -5 c-65 -8 -76
-19 -81 -86 -7 -84 8 -108 71 -114 l50 -5 5 -310 c4 -230 9 -319 20 -345 60
-153 176 -220 381 -220 122 0 129 6 129 112 0 91 -10 103 -92 111 -37 3 -69
14 -89 28 -55 39 -59 61 -59 359 l0 270 108 0 c134 0 142 5 142 102 0 87 -6
92 -139 98 l-106 5 -6 185 c-3 102 -6 186 -7 187 -31 38 -48 43 -136 42 -50 0
-97 -3 -104 -6z"/>
<path d="M5775 3035 l-25 -24 0 -701 0 -701 25 -24 c22 -23 32 -25 120 -25 88
0 98 2 120 25 l25 24 0 701 0 701 -25 24 c-22 23 -32 25 -120 25 -88 0 -98 -2
-120 -25z"/>
<path d="M3291 2669 c-87 -17 -189 -74 -260 -146 -109 -111 -161 -241 -161
-405 0 -115 14 -176 61 -276 70 -145 206 -256 359 -291 66 -15 207 -13 275 4
83 21 193 76 248 125 49 44 107 146 107 190 0 45 -15 50 -138 50 l-115 0 -41
-46 c-131 -148 -358 -117 -442 61 -43 91 -74 84 351 87 l374 3 23 23 c20 20
23 32 22 96 -2 99 -18 165 -66 264 -85 174 -260 273 -478 271 -41 -1 -95 -5
-119 -10z m244 -241 c70 -35 111 -86 129 -160 l6 -28 -255 0 -255 0 6 28 c21
91 96 161 199 186 36 8 129 -6 170 -26z"/>
<path d="M4343 2665 c-134 -29 -256 -124 -284 -222 -23 -79 -18 -169 14 -229
51 -99 122 -138 372 -203 101 -26 195 -56 210 -65 37 -25 48 -59 31 -101 -23
-53 -64 -70 -176 -70 -106 0 -162 20 -197 71 -50 72 -53 74 -166 74 -125 0
-132 -5 -124 -84 17 -163 232 -296 481 -296 212 0 388 83 450 213 47 97 43
201 -10 293 -50 89 -115 121 -378 193 -201 54 -236 72 -236 121 0 79 111 126
236 100 52 -11 66 -19 116 -71 l56 -59 94 0 c60 0 98 4 106 12 19 19 14 87 -9
134 -40 84 -160 162 -288 190 -82 17 -216 17 -298 -1z"/>
<path d="M6595 2674 c-113 -24 -164 -47 -247 -111 -142 -109 -224 -325 -198
-520 33 -249 184 -430 407 -488 74 -19 212 -19 288 0 94 24 196 79 253 136 73
73 110 156 91 207 -8 21 -13 22 -128 22 l-119 0 -39 -44 c-57 -65 -102 -88
-184 -94 -87 -6 -146 15 -204 73 -37 37 -75 113 -75 151 0 11 77 14 375 16
l374 3 23 23 c21 20 23 32 22 110 -4 249 -169 458 -401 507 -63 14 -192 18
-238 9z m225 -252 c58 -29 104 -88 116 -149 l7 -33 -252 0 c-194 0 -251 3
-251 13 1 24 41 102 68 130 73 78 204 94 312 39z"/>
<path d="M7595 1906 c-102 -44 -138 -188 -68 -274 79 -97 214 -95 290 5 24 32
28 45 28 104 0 60 -3 71 -31 106 -17 21 -46 46 -65 55 -40 21 -111 23 -154 4z
m140 -36 c80 -39 108 -141 57 -209 -69 -93 -176 -92 -246 2 -28 37 -28 120 -1
161 21 31 85 65 124 66 14 0 43 -9 66 -20z"/>
<path d="M7598 1768 c-4 -99 -1 -118 23 -118 15 0 19 7 19 35 0 30 3 35 24 35
24 0 36 -16 36 -51 0 -17 7 -20 38 -19 9 1 3 59 -9 81 -6 12 -4 21 7 30 17 14
11 58 -9 71 -7 4 -38 8 -69 8 l-56 0 -4 -72z m100 18 c4 -20 -13 -36 -40 -36
-13 0 -18 8 -18 31 0 27 3 30 27 27 18 -2 29 -10 31 -22z"/>
</g>
</svg>
