<?xml version="1.0" standalone="no"?>
<!DOCTYPE svg PUBLIC "-//W3C//DTD SVG 20010904//EN"
 "http://www.w3.org/TR/2001/REC-SVG-20010904/DTD/svg10.dtd">
<svg version="1.0" xmlns="http://www.w3.org/2000/svg"
 width="600.000000pt" height="600.000000pt" viewBox="0 0 600.000000 600.000000"
 preserveAspectRatio="xMidYMid meet">

<g transform="translate(0.000000,600.000000) scale(0.100000,-0.100000)"
fill="#000000" stroke="none">
<path d="M316 3513 c11 -47 12 -942 1 -1000 l-7 -43 384 0 383 0 6 48 c3 26 4
48 2 50 -1 1 -24 -2 -50 -8 -48 -11 -484 -13 -511 -3 -11 4 -14 44 -14 214 l0
209 229 0 c127 0 232 3 234 8 3 4 8 22 12 40 l7 32 -241 0 -241 0 2 213 3 212
215 0 c181 -1 221 -3 254 -18 21 -9 42 -17 47 -17 5 0 9 23 9 50 l0 50 -366 0
-366 0 8 -37z"/>
<path d="M3033 3543 c-7 -2 -13 -8 -13 -12 0 -15 -397 -917 -423 -961 -15 -25
-33 -57 -42 -72 l-16 -28 60 0 59 0 83 195 83 194 157 3 c86 2 168 1 183 -2
24 -5 35 -23 110 -195 l82 -190 124 -3 125 -3 -37 38 c-29 30 -118 186 -118
207 0 3 -34 80 -76 173 -42 92 -96 211 -119 263 -144 323 -168 376 -183 388
-17 13 -20 13 -39 5z m41 -440 c36 -82 66 -151 66 -155 0 -5 -61 -8 -136 -8
-105 0 -135 3 -131 13 37 97 123 297 128 297 3 0 36 -66 73 -147z"/>
<path d="M4154 3542 c-6 -4 -13 -14 -16 -22 -38 -102 -400 -913 -430 -965 -23
-38 -43 -73 -45 -77 -2 -5 23 -8 56 -8 l59 0 83 195 83 195 182 0 182 0 62
-142 c35 -79 73 -167 86 -195 l23 -53 121 0 122 0 -44 49 c-29 33 -62 91 -100
177 -54 122 -96 215 -291 649 -87 194 -103 218 -133 197z m40 -439 c36 -82 66
-151 66 -155 0 -10 -280 -10 -280 -1 0 14 135 303 141 303 3 0 36 -66 73 -147z"/>
<path d="M4768 3508 c10 -46 9 -966 -1 -1005 l-9 -33 112 0 c112 0 112 0 105
23 -4 12 -10 125 -12 250 l-5 229 24 -7 c34 -11 77 -50 148 -135 35 -41 128
-139 207 -217 l143 -143 103 0 102 1 -250 246 -250 246 63 13 c100 21 190 83
229 159 24 45 28 144 9 201 -51 155 -177 204 -525 204 l-200 0 7 -32z m446
-62 c98 -48 147 -139 131 -244 -21 -138 -121 -200 -311 -190 l-59 3 -3 234 -2
234 94 -5 c76 -4 106 -10 150 -32z"/>
<path d="M1300 3515 c0 -13 -69 -547 -114 -891 -8 -60 -20 -122 -25 -138 -6
-15 -11 -29 -11 -32 0 -2 27 -4 60 -4 l59 0 -5 48 c-5 40 79 678 90 690 2 1
86 -154 186 -345 101 -191 187 -354 193 -360 5 -7 22 -13 38 -13 31 0 32 2
168 260 39 74 106 201 148 282 43 81 81 144 84 140 12 -13 81 -593 76 -638 -3
-29 -1 -44 7 -45 94 -8 206 -13 206 -8 0 4 -7 26 -16 50 -16 46 -28 127 -94
639 -52 405 -47 380 -75 380 -20 0 -50 -52 -240 -421 -120 -231 -221 -417
-225 -412 -4 4 -54 96 -110 203 -57 107 -117 222 -135 255 -18 33 -69 131
-115 218 -82 155 -83 157 -116 157 -23 0 -34 -5 -34 -15z"/>
</g>
</svg>
