<?xml version="1.0" standalone="no"?>
<!DOCTYPE svg PUBLIC "-//W3C//DTD SVG 20010904//EN"
 "http://www.w3.org/TR/2001/REC-SVG-20010904/DTD/svg10.dtd">
<svg version="1.0" xmlns="http://www.w3.org/2000/svg"
 width="600.000000pt" height="600.000000pt" viewBox="0 0 600.000000 600.000000"
 preserveAspectRatio="xMidYMid meet">

<g transform="translate(0.000000,600.000000) scale(0.100000,-0.100000)"
fill="#000000" stroke="none">
<path d="M513 4391 c-89 -30 -165 -104 -195 -189 -10 -29 -13 -227 -13 -957
l0 -920 26 -55 c33 -67 81 -117 145 -150 l49 -25 1048 -3 1047 -2 0 99 0 98
-31 7 c-17 3 -376 6 -798 6 -858 0 -803 -5 -865 73 l-31 39 -3 824 c-2 794 -2
825 17 862 22 42 42 63 88 86 29 14 114 16 828 16 l795 0 0 105 0 105 -1027 0
c-960 -1 -1031 -2 -1080 -19z"/>
<path d="M2834 4397 c-2 -7 -4 -54 -2 -102 l3 -89 39 -8 c52 -11 101 -50 126
-98 19 -38 20 -60 20 -850 0 -665 -2 -817 -14 -844 -18 -44 -81 -94 -131 -104
l-40 -8 -3 -102 -3 -103 1188 3 c1122 3 1191 4 1243 22 96 32 173 79 246 151
110 109 164 220 185 384 32 248 -107 517 -323 627 -26 13 -48 28 -48 32 0 4
19 18 41 32 98 60 199 209 234 345 19 76 19 204 0 280 -53 205 -189 352 -395
424 -40 14 -178 16 -1203 19 -967 2 -1158 0 -1163 -11z m1042 -217 c24 -12 54
-39 70 -62 l29 -41 0 -827 0 -826 -28 -43 c-86 -130 -305 -100 -347 48 -8 24
-10 301 -8 842 l3 805 27 41 c51 78 165 106 254 63z m1039 -9 c145 -69 225
-208 225 -389 0 -49 -6 -109 -14 -133 -51 -168 -168 -275 -316 -288 l-65 -6 0
-105 0 -105 60 -6 c128 -12 228 -87 293 -218 34 -69 37 -82 40 -180 3 -84 0
-119 -16 -167 -37 -120 -123 -217 -223 -255 -59 -23 -194 -26 -242 -5 -39 16
-94 76 -104 114 -5 15 -8 389 -8 832 0 879 -3 832 57 886 46 43 80 53 168 54
73 0 93 -4 145 -29z"/>
<path d="M408 1877 c-68 -16 -121 -104 -104 -172 10 -39 64 -94 107 -106 32
-10 46 -9 84 5 40 16 75 47 75 68 0 15 -45 8 -75 -12 -16 -11 -38 -20 -48 -20
-33 0 -77 33 -88 67 -12 37 -7 60 22 97 16 21 29 26 64 26 26 0 47 -6 55 -15
13 -16 70 -21 70 -7 0 18 -60 64 -91 71 -19 4 -51 3 -71 -2z"/>
<path d="M2060 1855 c0 -20 5 -25 25 -25 20 0 25 5 25 25 0 20 -5 25 -25 25
-20 0 -25 -5 -25 -25z"/>
<path d="M2390 1740 c0 -133 1 -140 20 -140 19 0 20 7 20 140 0 133 -1 140
-20 140 -19 0 -20 -7 -20 -140z"/>
<path d="M2580 1740 l0 -140 25 0 25 0 0 140 0 140 -25 0 -25 0 0 -140z"/>
<path d="M2897 1873 c-4 -3 -7 -19 -7 -35 0 -18 -5 -28 -15 -28 -8 0 -15 -9
-15 -20 0 -11 7 -20 15 -20 12 0 15 -16 15 -85 0 -84 0 -85 25 -85 25 0 25 1
25 85 0 69 3 85 15 85 8 0 15 9 15 20 0 11 -7 20 -15 20 -10 0 -15 11 -15 35
0 27 -4 35 -18 35 -10 0 -22 -3 -25 -7z"/>
<path d="M3800 1845 c0 -24 -5 -35 -15 -35 -8 0 -15 -9 -15 -20 0 -11 7 -20
15 -20 12 0 15 -16 15 -85 0 -84 0 -85 25 -85 25 0 25 1 25 85 0 69 3 85 15
85 8 0 15 9 15 20 0 11 -7 20 -15 20 -10 0 -15 11 -15 35 0 31 -3 35 -25 35
-22 0 -25 -4 -25 -35z"/>
<path d="M3897 1873 c-4 -3 -7 -15 -7 -25 0 -13 7 -18 25 -18 20 0 25 5 25 25
0 18 -5 25 -18 25 -10 0 -22 -3 -25 -7z"/>
<path d="M4670 1740 c0 -133 1 -140 20 -140 19 0 20 7 20 140 0 133 -1 140
-20 140 -19 0 -20 -7 -20 -140z"/>
<path d="M4860 1740 l0 -140 50 0 c60 0 94 15 109 47 15 33 14 54 -4 80 -11
16 -13 28 -5 47 21 57 -25 106 -102 106 l-48 0 0 -140z m104 75 c9 -25 -4 -45
-30 -45 -20 0 -24 5 -24 30 0 25 4 30 24 30 13 0 26 -7 30 -15z m12 -119 c8
-34 -2 -46 -37 -46 -27 0 -29 3 -29 35 0 32 2 35 30 35 23 0 31 -5 36 -24z"/>
<path d="M5520 1740 c0 -133 1 -140 20 -140 17 0 20 7 20 40 0 22 4 40 9 40 4
0 21 -18 36 -40 22 -31 34 -40 57 -40 33 0 32 3 -20 67 -36 45 -36 45 11 106
l29 37 -30 0 c-22 0 -35 -8 -53 -35 -13 -19 -27 -35 -31 -35 -5 0 -8 32 -8 70
0 63 -2 70 -20 70 -19 0 -20 -7 -20 -140z"/>
<path d="M654 1810 c-57 -23 -84 -117 -48 -168 38 -55 120 -65 161 -19 46 49
52 80 27 132 -24 51 -88 76 -140 55z m90 -62 c22 -31 20 -64 -4 -88 -42 -42
-104 -10 -102 52 1 57 75 81 106 36z"/>
<path d="M868 1813 l-38 -4 0 -105 c0 -97 1 -104 20 -104 18 0 20 7 21 58 1
80 10 106 38 110 36 6 44 -11 43 -93 -2 -74 -1 -75 23 -75 24 0 25 2 25 73 0
75 9 97 42 97 26 0 38 -32 38 -104 0 -65 1 -66 26 -66 l27 0 -5 85 c-3 62 -9
90 -22 104 -25 28 -62 34 -98 17 -27 -14 -33 -14 -51 -1 -12 8 -28 14 -37 13
-8 -1 -32 -3 -52 -5z"/>
<path d="M1198 1813 l-38 -4 0 -105 0 -104 25 0 c24 0 25 1 23 75 -1 82 7 99
43 93 28 -4 37 -30 38 -110 1 -51 4 -58 21 -58 17 0 19 8 22 76 2 60 7 79 21
88 12 8 22 8 35 0 13 -9 18 -28 20 -88 3 -73 4 -77 25 -74 21 3 22 8 22 85 -1
64 -5 86 -19 101 -25 28 -62 35 -95 19 -24 -12 -32 -12 -52 -1 -13 7 -31 13
-39 12 -8 -1 -32 -3 -52 -5z"/>
<path d="M1538 1804 c-32 -17 -58 -62 -58 -99 0 -66 69 -125 129 -110 26 6 81
52 81 67 0 14 -37 9 -69 -9 -28 -16 -33 -17 -58 -3 -53 30 -40 40 51 40 95 0
98 2 72 65 -24 57 -92 80 -148 49z m90 -46 c22 -22 13 -28 -38 -28 -36 0 -50
4 -50 14 0 26 66 36 88 14z"/>
<path d="M1763 1812 l-43 -3 0 -105 0 -104 25 0 c24 0 25 2 25 75 0 68 2 76
24 90 21 14 29 39 15 47 -2 2 -23 2 -46 0z"/>
<path d="M1878 1805 c-69 -39 -76 -135 -14 -187 50 -41 131 -26 161 31 15 30
15 31 -8 31 -13 0 -32 -9 -42 -20 -23 -25 -67 -26 -88 -2 -22 25 -21 75 1 95
23 21 65 22 82 2 14 -16 60 -21 60 -6 0 6 -10 22 -23 36 -28 33 -90 42 -129
20z"/>
<path d="M2184 1802 c-38 -24 -58 -71 -50 -115 11 -60 84 -107 136 -88 15 5
39 7 53 4 29 -6 29 -10 29 147 0 22 -1 45 -1 50 -1 6 -16 10 -33 10 -18 0 -49
2 -68 5 -25 4 -44 0 -66 -13z m106 -52 c11 -11 20 -31 20 -45 0 -14 -9 -34
-20 -45 -58 -58 -142 20 -94 88 19 28 67 29 94 2z"/>
<path d="M2737 1814 c-4 -5 -23 -7 -42 -6 l-35 3 0 -106 0 -105 25 0 c24 0 25
2 25 66 0 76 12 104 43 104 38 0 47 -19 47 -97 0 -72 0 -73 26 -73 l26 0 -3
85 c-3 68 -8 88 -24 104 -22 22 -76 37 -88 25z"/>
<path d="M3015 1788 c-64 -61 -50 -147 29 -184 43 -21 79 -13 120 28 29 29 29
32 11 39 -12 4 -28 1 -40 -7 -11 -8 -26 -17 -34 -21 -20 -9 -65 10 -69 30 -3
15 6 17 77 17 l81 0 0 34 c0 26 -8 41 -35 65 -49 43 -93 42 -140 -1z m113 -30
c22 -22 13 -28 -43 -28 -30 0 -55 4 -55 8 0 17 25 32 55 32 17 0 36 -5 43 -12z"/>
<path d="M3263 1812 l-43 -3 0 -105 c0 -97 1 -104 20 -104 18 0 20 7 20 69 0
68 10 93 41 103 6 2 9 13 7 23 -2 17 -10 20 -45 17z"/>
<path d="M3373 1813 l-43 -4 0 -105 c0 -95 2 -104 19 -104 16 0 19 10 23 76 5
76 14 94 48 94 34 0 42 -16 41 -94 0 -74 0 -76 24 -76 24 0 25 2 25 79 0 116
-29 144 -137 134z"/>
<path d="M3605 1811 c-91 -40 -90 -169 2 -207 25 -11 43 -12 62 -6 14 5 41 7
59 4 l32 -4 0 106 0 106 -37 0 c-21 -1 -51 1 -68 4 -16 3 -39 2 -50 -3z m89
-63 c33 -46 5 -108 -48 -108 -27 0 -66 42 -66 71 0 52 85 79 114 37z"/>
<path d="M4019 1806 c-36 -21 -63 -79 -55 -120 8 -42 54 -85 97 -92 96 -14
158 112 92 186 -33 37 -93 49 -134 26z m95 -52 c38 -38 11 -114 -41 -114 -29
0 -63 33 -63 63 0 56 66 89 104 51z"/>
<path d="M4242 1813 l-43 -4 3 -102 c3 -97 4 -102 26 -105 21 -3 22 0 22 67 0
73 13 101 49 101 32 0 41 -22 41 -97 0 -71 1 -73 25 -73 25 0 25 1 25 79 0 69
-3 84 -22 105 -25 28 -58 36 -126 29z"/>
<path d="M4474 1806 c-39 -17 -68 -76 -60 -120 10 -55 83 -105 130 -89 11 3
37 7 56 7 l35 1 3 103 3 103 -38 -1 c-21 -1 -51 1 -68 4 -16 4 -44 0 -61 -8z
m96 -56 c55 -55 -21 -144 -83 -97 -9 6 -20 26 -23 43 -12 61 62 98 106 54z"/>
<path d="M5099 1805 c-26 -14 -59 -69 -59 -99 0 -8 8 -31 17 -51 20 -42 84
-72 123 -57 14 5 39 7 56 5 l32 -5 1 106 1 107 -37 -1 c-21 -1 -54 2 -73 5
-22 3 -45 -1 -61 -10z m101 -55 c11 -11 20 -30 20 -43 0 -30 -35 -67 -62 -67
-29 0 -68 38 -68 67 0 30 34 63 65 63 14 0 34 -9 45 -20z"/>
<path d="M5343 1813 l-43 -4 0 -105 c0 -95 2 -104 19 -104 16 0 19 11 26 73 7
80 16 97 51 97 32 0 44 -28 44 -104 0 -59 2 -66 20 -66 18 0 20 7 20 79 0 44
-3 87 -6 96 -7 18 -56 46 -76 43 -7 -1 -32 -3 -55 -5z"/>
<path d="M2060 1705 l0 -105 25 0 25 0 0 105 0 105 -25 0 -25 0 0 -105z"/>
<path d="M3890 1705 l0 -105 25 0 25 0 0 105 0 105 -25 0 -25 0 0 -105z"/>
</g>
</svg>
